M48
; DRILL file {KiCad (6.0.10)} date Sat May  6 14:56:49 2023
; FORMAT={-:-/ absolute / metric / decimal}
; #@! TF.CreationDate,2023-05-06T14:56:49+10:00
; #@! TF.GenerationSoftware,Kicad,Pcbnew,(6.0.10)
; #@! TF.FileFunction,Plated,1,4,PTH
FMAT,2
METRIC
; #@! TA.AperFunction,Plated,PTH,ComponentDrill
T1C0.200
; #@! TA.AperFunction,Plated,PTH,ViaDrill
T2C0.400
; #@! TA.AperFunction,Plated,PTH,ComponentDrill
T3C0.890
; #@! TA.AperFunction,Plated,PTH,ComponentDrill
T4C0.900
; #@! TA.AperFunction,Plated,PTH,ComponentDrill
T5C1.000
; #@! TA.AperFunction,Plated,PTH,ComponentDrill
T6C1.200
; #@! TA.AperFunction,Plated,PTH,ComponentDrill
T7C1.300
; #@! TA.AperFunction,Plated,PTH,ComponentDrill
T8C1.600
%
G90
G05
T1
X135.375Y-94.561
X135.375Y-96.041
X136.115Y-93.821
X136.115Y-95.301
X136.115Y-96.781
X136.855Y-94.561
X136.855Y-96.041
X137.595Y-93.821
X137.595Y-95.301
X137.595Y-96.781
X138.335Y-94.561
X138.335Y-96.041
T2
X110.007Y-100.914
X129.337Y-100.533
X130.099Y-104.253
X130.099Y-105.269
X130.861Y-62.851
X131.369Y-107.594
X131.369Y-92.823
X132.118Y-94.407
X132.131Y-105.562
X132.258Y-95.529
X132.639Y-97.434
X132.893Y-93.775
X132.893Y-106.578
X135.687Y-91.465
X136.195Y-89.775
X136.703Y-91.465
X137.465Y-100.736
X137.973Y-76.313
X138.227Y-104.038
X138.227Y-106.539
X140.259Y-91.045
X140.513Y-89.56
X141.783Y-97.726
X141.91Y-83.044
X143.053Y-96.926
X143.307Y-99.72
X144.577Y-107.555
X144.958Y-76.821
X145.085Y-84.441
X145.085Y-85.965
X145.593Y-91.338
X145.847Y-85.203
X146.355Y-100.736
X148.768Y-69.582
X148.895Y-91.592
X149.493Y-73.265
X151.177Y-92.096
X151.181Y-85.496
X152.07Y-81.559
X152.197Y-79.361
X152.451Y-77.837
X152.705Y-84.441
X152.705Y-86.044
X152.705Y-96.887
X153.213Y-73.773
X153.721Y-96.887
X154.229Y-73.773
X154.737Y-91.553
X154.737Y-92.823
X154.737Y-96.887
X156.261Y-85.711
X156.769Y-80.885
X156.769Y-87.743
X157.277Y-85.711
X157.531Y-81.647
X157.956Y-89.362
X158.424Y-93.266
X159.055Y-89.362
X159.309Y-93.731
X160.325Y-89.521
X160.325Y-93.839
X160.833Y-99.427
X161.341Y-86.727
X161.341Y-90.029
X162.798Y-82.595
X163.881Y-78.345
X164.643Y-102.983
X165.151Y-80.504
X165.913Y-85.457
X166.167Y-84.441
X166.167Y-101.459
X166.421Y-94.386
X166.421Y-78.091
X166.548Y-80.62
X167.691Y-79.742
X168.199Y-102.983
X169.723Y-101.459
X170.993Y-73.265
X171.501Y-88.596
X171.793Y-102.983
X172.009Y-80.123
X172.009Y-98.665
X172.263Y-90.195
X173.025Y-83.425
X173.152Y-89.433
X174.041Y-70.217
X174.041Y-92.315
X174.041Y-93.331
X174.041Y-94.347
X175.311Y-98.411
X175.311Y-102.983
X178.359Y-85.457
X178.867Y-98.157
X178.905Y-102.983
X181.915Y-97.649
X182.423Y-102.983
X184.201Y-67.169
X185.471Y-97.649
X185.979Y-102.983
X189.535Y-102.983
X190.297Y-66.915
X195.377Y-71.995
X195.377Y-75.043
T3
X113.055Y-114.09
X115.595Y-112.57
X123.165Y-114.09
X125.705Y-112.57
T4
X114.935Y-102.85
X116.205Y-100.31
X117.475Y-102.85
X118.745Y-100.31
X120.015Y-102.85
X121.285Y-100.31
X122.555Y-102.85
X123.825Y-100.31
T5
X180.645Y-81.647
X180.645Y-84.187
X180.645Y-86.727
X183.185Y-81.647
X183.185Y-84.187
X183.185Y-86.727
X190.501Y-81.647
X190.501Y-84.187
X190.501Y-86.727
X193.041Y-81.647
X193.041Y-84.187
X193.041Y-86.727
T6
X111.133Y-55.169
X114.633Y-55.169
X118.133Y-55.169
X121.633Y-55.169
X129.873Y-55.169
X133.373Y-55.169
X136.235Y-114.714
X139.735Y-114.714
X141.979Y-55.169
X145.479Y-55.169
X147.963Y-114.729
X148.979Y-55.169
X151.463Y-114.729
X152.479Y-55.169
X154.963Y-114.729
X155.979Y-55.169
X158.463Y-114.729
X159.479Y-55.169
X162.979Y-55.169
X164.077Y-114.728
X166.479Y-55.169
X167.577Y-114.728
X171.077Y-114.728
X174.577Y-114.728
X177.399Y-55.169
X178.077Y-114.728
X180.899Y-55.169
X181.577Y-114.728
X184.399Y-55.169
X185.077Y-114.728
X188.577Y-114.728
T7
X114.338Y-79.521
X118.388Y-74.021
X122.438Y-79.521
T8
X111.605Y-106.14
X127.155Y-106.14
T0
M30
