G04 #@! TF.GenerationSoftware,KiCad,Pcbnew,(6.0.10)*
G04 #@! TF.CreationDate,2023-05-06T14:56:34+10:00*
G04 #@! TF.ProjectId,jms_ufe_controller,6a6d735f-7566-4655-9f63-6f6e74726f6c,rev?*
G04 #@! TF.SameCoordinates,Original*
G04 #@! TF.FileFunction,Copper,L3,Inr*
G04 #@! TF.FilePolarity,Positive*
%FSLAX46Y46*%
G04 Gerber Fmt 4.6, Leading zero omitted, Abs format (unit mm)*
G04 Created by KiCad (PCBNEW (6.0.10)) date 2023-05-06 14:56:34*
%MOMM*%
%LPD*%
G01*
G04 APERTURE LIST*
G04 #@! TA.AperFunction,ComponentPad*
%ADD10R,2.400000X2.400000*%
G04 #@! TD*
G04 #@! TA.AperFunction,ComponentPad*
%ADD11C,2.400000*%
G04 #@! TD*
G04 #@! TA.AperFunction,ComponentPad*
%ADD12R,1.700000X1.700000*%
G04 #@! TD*
G04 #@! TA.AperFunction,ComponentPad*
%ADD13O,1.700000X1.700000*%
G04 #@! TD*
G04 #@! TA.AperFunction,ComponentPad*
%ADD14C,0.499999*%
G04 #@! TD*
G04 #@! TA.AperFunction,ComponentPad*
%ADD15C,2.200000*%
G04 #@! TD*
G04 #@! TA.AperFunction,ComponentPad*
%ADD16C,2.600000*%
G04 #@! TD*
G04 #@! TA.AperFunction,ComponentPad*
%ADD17C,1.890000*%
G04 #@! TD*
G04 #@! TA.AperFunction,ComponentPad*
%ADD18R,1.900000X1.900000*%
G04 #@! TD*
G04 #@! TA.AperFunction,ComponentPad*
%ADD19C,1.900000*%
G04 #@! TD*
G04 #@! TA.AperFunction,ViaPad*
%ADD20C,0.800000*%
G04 #@! TD*
G04 #@! TA.AperFunction,Conductor*
%ADD21C,0.250000*%
G04 #@! TD*
G04 APERTURE END LIST*
D10*
X166479318Y-55168783D03*
D11*
X162979318Y-55168783D03*
X159479318Y-55168783D03*
X155979318Y-55168783D03*
X152479318Y-55168783D03*
X148979318Y-55168783D03*
X145479318Y-55168783D03*
X141979318Y-55168783D03*
X188577318Y-114728000D03*
X185077318Y-114728000D03*
X181577318Y-114728000D03*
X178077318Y-114728000D03*
X174577318Y-114728000D03*
X171077318Y-114728000D03*
X167577318Y-114728000D03*
D10*
X164077318Y-114728000D03*
X147963318Y-114728783D03*
D11*
X151463318Y-114728783D03*
X154963318Y-114728783D03*
X158463318Y-114728783D03*
D10*
X136234800Y-114714400D03*
D11*
X139734800Y-114714400D03*
D10*
X133373318Y-55168783D03*
D11*
X129873318Y-55168783D03*
X177399318Y-55168783D03*
X180899318Y-55168783D03*
D10*
X184399318Y-55168783D03*
X121633318Y-55168783D03*
D11*
X118133318Y-55168783D03*
X114633318Y-55168783D03*
X111133318Y-55168783D03*
D12*
X193040518Y-81646783D03*
D13*
X190500518Y-81646783D03*
X193040518Y-84186783D03*
X190500518Y-84186783D03*
X193040518Y-86726783D03*
X190500518Y-86726783D03*
D14*
X136115199Y-96780800D03*
X135375200Y-96040801D03*
X138335200Y-94560799D03*
X136855200Y-94560799D03*
X137595201Y-95300800D03*
X135375200Y-94560799D03*
X138335200Y-96040801D03*
X137595201Y-93820800D03*
X136115199Y-93820800D03*
X136855200Y-96040801D03*
X137595201Y-96780800D03*
X136115199Y-95300800D03*
D15*
X114337925Y-79520900D03*
X122437925Y-79520900D03*
X118387925Y-74020900D03*
D16*
X127155000Y-106140000D03*
X111605000Y-106140000D03*
D17*
X125705000Y-112570000D03*
X123165000Y-114090000D03*
X115595000Y-112570000D03*
X113055000Y-114090000D03*
D18*
X114935000Y-102850000D03*
D19*
X116205000Y-100310000D03*
X117475000Y-102850000D03*
X118745000Y-100310000D03*
X120015000Y-102850000D03*
X121285000Y-100310000D03*
X122555000Y-102850000D03*
X123825000Y-100310000D03*
D12*
X183185318Y-81646783D03*
D13*
X180645318Y-81646783D03*
X183185318Y-84186783D03*
X180645318Y-84186783D03*
X183185318Y-86726783D03*
X180645318Y-86726783D03*
D20*
X130861318Y-62850783D03*
X157955769Y-89362283D03*
X159055318Y-89362283D03*
X161341318Y-90028783D03*
X160325318Y-89520783D03*
X152705318Y-86044500D03*
X152705318Y-84440783D03*
X152197318Y-79360783D03*
X173025318Y-83424783D03*
X171501318Y-88595500D03*
X169723318Y-101458783D03*
X166167318Y-101458783D03*
X160833318Y-99426783D03*
X172009318Y-98664783D03*
X175311318Y-98410783D03*
X178867318Y-98156783D03*
X181915318Y-97648783D03*
X185471318Y-97648783D03*
X164643318Y-102982783D03*
X168199318Y-102982783D03*
X171792818Y-102982783D03*
X175311318Y-102982783D03*
X178904818Y-102982783D03*
X182423318Y-102982783D03*
X185979318Y-102982783D03*
X189535318Y-102982783D03*
X130099318Y-104252783D03*
X166167318Y-84440783D03*
X145085318Y-84440783D03*
X145847318Y-85202783D03*
X163881318Y-78344783D03*
X154229318Y-73772783D03*
X157277318Y-85710783D03*
X140259318Y-91044783D03*
X130099318Y-105268783D03*
X152451318Y-77836783D03*
X137464800Y-100736400D03*
X148894800Y-91592400D03*
X174041318Y-94346783D03*
X129336800Y-100533200D03*
X174041318Y-92314783D03*
X174041318Y-93330783D03*
X154737318Y-96886783D03*
X145085318Y-85964783D03*
X153721318Y-96886783D03*
X143306800Y-99720400D03*
X165913318Y-85456783D03*
X152069800Y-81559400D03*
X156261318Y-85710783D03*
X154737318Y-92822783D03*
X154737318Y-91552783D03*
X157531318Y-81646783D03*
X156769318Y-80884783D03*
X131369318Y-92822783D03*
X138227318Y-106538783D03*
X153213318Y-73772783D03*
X152705318Y-96886783D03*
X138226800Y-104038400D03*
X174041318Y-70216783D03*
X140512800Y-89560400D03*
X146354800Y-100736400D03*
X145592800Y-91338400D03*
X184201318Y-67168783D03*
X131368800Y-107594400D03*
X166421318Y-78090783D03*
X132638800Y-97434400D03*
X141910318Y-83043783D03*
X156769318Y-87742783D03*
X161341318Y-86726783D03*
X144577318Y-107554783D03*
X137973318Y-76312783D03*
X178359318Y-85456783D03*
X141782800Y-97725900D03*
X132892800Y-106578400D03*
X143052800Y-96926400D03*
X132130800Y-105562400D03*
X110007400Y-100914200D03*
X136195318Y-89774783D03*
X158424393Y-93266237D03*
X151176500Y-92096100D03*
X151180800Y-85496400D03*
X159309318Y-93730900D03*
X136702800Y-91465400D03*
X160325318Y-93838783D03*
X135686800Y-91465400D03*
X132892800Y-93775299D03*
X166420800Y-94386400D03*
X172262800Y-90195400D03*
X132118485Y-94407313D03*
X132257800Y-95529400D03*
X173151800Y-89433400D03*
X165151318Y-80503783D03*
X148768318Y-69581783D03*
X144958318Y-76820783D03*
X166548318Y-80620500D03*
X149492818Y-73264783D03*
X167691318Y-79741783D03*
X172009318Y-80122783D03*
X195377318Y-71994783D03*
X190297318Y-66914783D03*
X170993318Y-73264783D03*
X195377318Y-75042783D03*
X162797518Y-82594983D03*
D21*
X158605318Y-88712734D02*
X157955769Y-89362283D01*
X158605318Y-84627179D02*
X158605318Y-88712734D01*
X154033318Y-80055179D02*
X158605318Y-84627179D01*
X152260120Y-74725981D02*
X154033318Y-76499179D01*
X152250815Y-74725981D02*
X152260120Y-74725981D01*
X141471318Y-70920783D02*
X148445617Y-70920783D01*
X148445617Y-70920783D02*
X152250815Y-74725981D01*
X133401318Y-62850783D02*
X141471318Y-70920783D01*
X154033318Y-76499179D02*
X154033318Y-80055179D01*
X130861318Y-62850783D02*
X133401318Y-62850783D01*
X129873318Y-58504783D02*
X129873318Y-55168783D01*
X141783318Y-70470783D02*
X129845318Y-58532783D01*
X150918013Y-72756783D02*
X148632013Y-70470783D01*
X129845318Y-58532783D02*
X129873318Y-58504783D01*
X150927318Y-72756783D02*
X150918013Y-72756783D01*
X148632013Y-70470783D02*
X141783318Y-70470783D01*
X154483318Y-76312783D02*
X150927318Y-72756783D01*
X154483318Y-79868783D02*
X154483318Y-76312783D01*
X159055318Y-84440783D02*
X154483318Y-79868783D01*
X159055318Y-89362283D02*
X159055318Y-84440783D01*
X130353318Y-97190223D02*
X130353318Y-88250783D01*
X130353318Y-88250783D02*
X130353318Y-83932783D01*
X140717878Y-107554783D02*
X130353318Y-97190223D01*
X144577318Y-107554783D02*
X140717878Y-107554783D01*
X130353318Y-83932783D02*
X137973318Y-76312783D01*
M02*
