G04 #@! TF.GenerationSoftware,KiCad,Pcbnew,(6.0.10)*
G04 #@! TF.CreationDate,2023-05-06T14:56:35+10:00*
G04 #@! TF.ProjectId,jms_ufe_controller,6a6d735f-7566-4655-9f63-6f6e74726f6c,rev?*
G04 #@! TF.SameCoordinates,Original*
G04 #@! TF.FileFunction,Soldermask,Top*
G04 #@! TF.FilePolarity,Negative*
%FSLAX46Y46*%
G04 Gerber Fmt 4.6, Leading zero omitted, Abs format (unit mm)*
G04 Created by KiCad (PCBNEW (6.0.10)) date 2023-05-06 14:56:35*
%MOMM*%
%LPD*%
G01*
G04 APERTURE LIST*
G04 Aperture macros list*
%AMRoundRect*
0 Rectangle with rounded corners*
0 $1 Rounding radius*
0 $2 $3 $4 $5 $6 $7 $8 $9 X,Y pos of 4 corners*
0 Add a 4 corners polygon primitive as box body*
4,1,4,$2,$3,$4,$5,$6,$7,$8,$9,$2,$3,0*
0 Add four circle primitives for the rounded corners*
1,1,$1+$1,$2,$3*
1,1,$1+$1,$4,$5*
1,1,$1+$1,$6,$7*
1,1,$1+$1,$8,$9*
0 Add four rect primitives between the rounded corners*
20,1,$1+$1,$2,$3,$4,$5,0*
20,1,$1+$1,$4,$5,$6,$7,0*
20,1,$1+$1,$6,$7,$8,$9,0*
20,1,$1+$1,$8,$9,$2,$3,0*%
%AMFreePoly0*
4,1,6,1.000000,0.000000,0.500000,-0.750000,-0.500000,-0.750000,-0.500000,0.750000,0.500000,0.750000,1.000000,0.000000,1.000000,0.000000,$1*%
%AMFreePoly1*
4,1,6,0.500000,-0.750000,-0.650000,-0.750000,-0.150000,0.000000,-0.650000,0.750000,0.500000,0.750000,0.500000,-0.750000,0.500000,-0.750000,$1*%
G04 Aperture macros list end*
%ADD10RoundRect,0.135000X0.185000X-0.135000X0.185000X0.135000X-0.185000X0.135000X-0.185000X-0.135000X0*%
%ADD11R,0.600000X1.070000*%
%ADD12R,2.400000X2.400000*%
%ADD13C,2.400000*%
%ADD14RoundRect,0.218750X-0.256250X0.218750X-0.256250X-0.218750X0.256250X-0.218750X0.256250X0.218750X0*%
%ADD15RoundRect,0.135000X-0.135000X-0.185000X0.135000X-0.185000X0.135000X0.185000X-0.135000X0.185000X0*%
%ADD16RoundRect,0.218750X-0.218750X-0.256250X0.218750X-0.256250X0.218750X0.256250X-0.218750X0.256250X0*%
%ADD17R,1.800000X2.500000*%
%ADD18RoundRect,0.135000X-0.185000X0.135000X-0.185000X-0.135000X0.185000X-0.135000X0.185000X0.135000X0*%
%ADD19RoundRect,0.150000X0.587500X0.150000X-0.587500X0.150000X-0.587500X-0.150000X0.587500X-0.150000X0*%
%ADD20RoundRect,0.075000X-0.725000X-0.075000X0.725000X-0.075000X0.725000X0.075000X-0.725000X0.075000X0*%
%ADD21RoundRect,0.075000X-0.075000X-0.725000X0.075000X-0.725000X0.075000X0.725000X-0.075000X0.725000X0*%
%ADD22C,3.200000*%
%ADD23RoundRect,0.140000X-0.140000X-0.170000X0.140000X-0.170000X0.140000X0.170000X-0.140000X0.170000X0*%
%ADD24R,1.700000X1.700000*%
%ADD25O,1.700000X1.700000*%
%ADD26RoundRect,0.140000X0.140000X0.170000X-0.140000X0.170000X-0.140000X-0.170000X0.140000X-0.170000X0*%
%ADD27RoundRect,0.135000X0.135000X0.185000X-0.135000X0.185000X-0.135000X-0.185000X0.135000X-0.185000X0*%
%ADD28RoundRect,0.125000X-0.174999X-0.000001X-0.174999X0.000001X0.174999X0.000001X0.174999X-0.000001X0*%
%ADD29RoundRect,0.125000X0.000001X-0.174999X-0.000001X-0.174999X-0.000001X0.174999X0.000001X0.174999X0*%
%ADD30RoundRect,0.184000X-2.116000X-2.116000X2.116000X-2.116000X2.116000X2.116000X-2.116000X2.116000X0*%
%ADD31RoundRect,0.140000X0.170000X-0.140000X0.170000X0.140000X-0.170000X0.140000X-0.170000X-0.140000X0*%
%ADD32C,2.000000*%
%ADD33FreePoly0,90.000000*%
%ADD34FreePoly1,90.000000*%
%ADD35RoundRect,0.140000X-0.170000X0.140000X-0.170000X-0.140000X0.170000X-0.140000X0.170000X0.140000X0*%
%ADD36C,2.200000*%
%ADD37R,1.600000X0.760000*%
%ADD38C,3.250000*%
%ADD39C,2.600000*%
%ADD40C,1.890000*%
%ADD41R,1.900000X1.900000*%
%ADD42C,1.900000*%
%ADD43C,0.991000*%
%ADD44C,0.787000*%
%ADD45RoundRect,0.150000X0.825000X0.150000X-0.825000X0.150000X-0.825000X-0.150000X0.825000X-0.150000X0*%
G04 APERTURE END LIST*
D10*
X141783318Y-65646783D03*
X141783318Y-64626783D03*
X145339318Y-65646783D03*
X145339318Y-64626783D03*
X148895318Y-65646783D03*
X148895318Y-64626783D03*
X152451318Y-65646783D03*
X152451318Y-64626783D03*
X156007318Y-65646783D03*
X156007318Y-64626783D03*
X159563318Y-65646783D03*
X159563318Y-64626783D03*
X163121318Y-65646783D03*
X163121318Y-64626783D03*
X166675318Y-65646783D03*
X166675318Y-64626783D03*
D11*
X178801318Y-99964783D03*
X176901318Y-99964783D03*
X177851318Y-102444783D03*
X182357318Y-99964783D03*
X180457318Y-99964783D03*
X181407318Y-102444783D03*
X185913318Y-99964783D03*
X184013318Y-99964783D03*
X184963318Y-102444783D03*
X189469318Y-99964783D03*
X187569318Y-99964783D03*
X188519318Y-102444783D03*
X164577318Y-99964783D03*
X162677318Y-99964783D03*
X163627318Y-102444783D03*
X167183318Y-102444783D03*
X166233318Y-99964783D03*
X168133318Y-99964783D03*
X171689318Y-99964783D03*
X169789318Y-99964783D03*
X170739318Y-102444783D03*
X175245318Y-99964783D03*
X173345318Y-99964783D03*
X174295318Y-102444783D03*
D12*
X166479318Y-55168783D03*
D13*
X162979318Y-55168783D03*
X159479318Y-55168783D03*
X155979318Y-55168783D03*
X152479318Y-55168783D03*
X148979318Y-55168783D03*
X145479318Y-55168783D03*
X141979318Y-55168783D03*
X188577318Y-114728000D03*
X185077318Y-114728000D03*
X181577318Y-114728000D03*
X178077318Y-114728000D03*
X174577318Y-114728000D03*
X171077318Y-114728000D03*
X167577318Y-114728000D03*
D12*
X164077318Y-114728000D03*
D14*
X143307318Y-63841283D03*
X143307318Y-65416283D03*
X146863318Y-63841283D03*
X146863318Y-65416283D03*
X150419318Y-63841283D03*
X150419318Y-65416283D03*
X153975318Y-63841283D03*
X153975318Y-65416283D03*
X157531318Y-63841283D03*
X157531318Y-65416283D03*
X161087318Y-63841283D03*
X161087318Y-65416283D03*
X164643318Y-63841283D03*
X164643318Y-65416283D03*
X168199318Y-63841283D03*
X168199318Y-65416283D03*
D12*
X147963318Y-114728783D03*
D13*
X151463318Y-114728783D03*
X154963318Y-114728783D03*
X158463318Y-114728783D03*
D12*
X136234800Y-114714400D03*
D13*
X139734800Y-114714400D03*
D12*
X133373318Y-55168783D03*
D13*
X129873318Y-55168783D03*
X177399318Y-55168783D03*
X180899318Y-55168783D03*
D12*
X184399318Y-55168783D03*
X121633318Y-55168783D03*
D13*
X118133318Y-55168783D03*
X114633318Y-55168783D03*
X111133318Y-55168783D03*
D15*
X107236800Y-112420400D03*
X108256800Y-112420400D03*
D16*
X136144000Y-82956400D03*
X137719000Y-82956400D03*
D10*
X112826800Y-96420400D03*
X112826800Y-95400400D03*
D17*
X135686800Y-103816400D03*
X135686800Y-107816400D03*
D15*
X130350800Y-112674400D03*
X131370800Y-112674400D03*
D18*
X164389318Y-103996783D03*
X164389318Y-105016783D03*
D15*
X107188000Y-109626400D03*
X108208000Y-109626400D03*
D14*
X166421318Y-104227283D03*
X166421318Y-105802283D03*
D19*
X142212300Y-106004400D03*
X142212300Y-104104400D03*
X140337300Y-105054400D03*
D15*
X159006000Y-73772783D03*
X157986000Y-73772783D03*
D20*
X154377000Y-77820000D03*
X154377000Y-78320000D03*
X154377000Y-78820000D03*
X154377000Y-79320000D03*
X154377000Y-79820000D03*
X154377000Y-80320000D03*
X154377000Y-80820000D03*
X154377000Y-81320000D03*
X154377000Y-81820000D03*
X154377000Y-82320000D03*
X154377000Y-82820000D03*
X154377000Y-83320000D03*
X154377000Y-83820000D03*
X154377000Y-84320000D03*
X154377000Y-84820000D03*
X154377000Y-85320000D03*
X154377000Y-85820000D03*
X154377000Y-86320000D03*
X154377000Y-86820000D03*
X154377000Y-87320000D03*
X154377000Y-87820000D03*
X154377000Y-88320000D03*
X154377000Y-88820000D03*
X154377000Y-89320000D03*
X154377000Y-89820000D03*
D21*
X156052000Y-91495000D03*
X156552000Y-91495000D03*
X157052000Y-91495000D03*
X157552000Y-91495000D03*
X158052000Y-91495000D03*
X158552000Y-91495000D03*
X159052000Y-91495000D03*
X159552000Y-91495000D03*
X160052000Y-91495000D03*
X160552000Y-91495000D03*
X161052000Y-91495000D03*
X161552000Y-91495000D03*
X162052000Y-91495000D03*
X162552000Y-91495000D03*
X163052000Y-91495000D03*
X163552000Y-91495000D03*
X164052000Y-91495000D03*
X164552000Y-91495000D03*
X165052000Y-91495000D03*
X165552000Y-91495000D03*
X166052000Y-91495000D03*
X166552000Y-91495000D03*
X167052000Y-91495000D03*
X167552000Y-91495000D03*
X168052000Y-91495000D03*
D20*
X169727000Y-89820000D03*
X169727000Y-89320000D03*
X169727000Y-88820000D03*
X169727000Y-88320000D03*
X169727000Y-87820000D03*
X169727000Y-87320000D03*
X169727000Y-86820000D03*
X169727000Y-86320000D03*
X169727000Y-85820000D03*
X169727000Y-85320000D03*
X169727000Y-84820000D03*
X169727000Y-84320000D03*
X169727000Y-83820000D03*
X169727000Y-83320000D03*
X169727000Y-82820000D03*
X169727000Y-82320000D03*
X169727000Y-81820000D03*
X169727000Y-81320000D03*
X169727000Y-80820000D03*
X169727000Y-80320000D03*
X169727000Y-79820000D03*
X169727000Y-79320000D03*
X169727000Y-78820000D03*
X169727000Y-78320000D03*
X169727000Y-77820000D03*
D21*
X168052000Y-76145000D03*
X167552000Y-76145000D03*
X167052000Y-76145000D03*
X166552000Y-76145000D03*
X166052000Y-76145000D03*
X165552000Y-76145000D03*
X165052000Y-76145000D03*
X164552000Y-76145000D03*
X164052000Y-76145000D03*
X163552000Y-76145000D03*
X163052000Y-76145000D03*
X162552000Y-76145000D03*
X162052000Y-76145000D03*
X161552000Y-76145000D03*
X161052000Y-76145000D03*
X160552000Y-76145000D03*
X160052000Y-76145000D03*
X159552000Y-76145000D03*
X159052000Y-76145000D03*
X158552000Y-76145000D03*
X158052000Y-76145000D03*
X157552000Y-76145000D03*
X157052000Y-76145000D03*
X156552000Y-76145000D03*
X156052000Y-76145000D03*
D22*
X195580000Y-54610000D03*
D23*
X144350800Y-92862400D03*
X145310800Y-92862400D03*
D16*
X136144000Y-80416400D03*
X137719000Y-80416400D03*
D23*
X142210964Y-89306400D03*
X143170964Y-89306400D03*
D24*
X193040518Y-81646783D03*
D25*
X190500518Y-81646783D03*
X193040518Y-84186783D03*
X190500518Y-84186783D03*
X193040518Y-86726783D03*
X190500518Y-86726783D03*
D22*
X104140000Y-54610000D03*
D23*
X170208000Y-92456000D03*
X171168000Y-92456000D03*
D10*
X137261600Y-90629200D03*
X137261600Y-89609200D03*
D26*
X150340000Y-83312000D03*
X149380000Y-83312000D03*
D27*
X131370800Y-110134400D03*
X130350800Y-110134400D03*
D10*
X132334000Y-70358000D03*
X132334000Y-69338000D03*
D19*
X147673300Y-106004400D03*
X147673300Y-104104400D03*
X145798300Y-105054400D03*
D15*
X142796800Y-98450400D03*
X143816800Y-98450400D03*
D18*
X185725318Y-103996783D03*
X185725318Y-105016783D03*
X182169318Y-103996783D03*
X182169318Y-105016783D03*
X167945318Y-103996783D03*
X167945318Y-105016783D03*
D14*
X169977318Y-104227283D03*
X169977318Y-105802283D03*
D18*
X178867318Y-103996783D03*
X178867318Y-105016783D03*
D14*
X187757318Y-104227283D03*
X187757318Y-105802283D03*
D27*
X140716000Y-80416400D03*
X139696000Y-80416400D03*
D22*
X195580000Y-115570000D03*
D18*
X175057318Y-103996783D03*
X175057318Y-105016783D03*
D28*
X133955201Y-93050799D03*
X133955201Y-93550798D03*
X133955201Y-94050797D03*
X133955201Y-94550799D03*
X133955201Y-95050798D03*
X133955201Y-95550797D03*
X133955201Y-96050799D03*
X133955201Y-96550798D03*
X133955201Y-97050799D03*
X133955201Y-97550798D03*
D29*
X134605202Y-98200799D03*
X135105201Y-98200799D03*
X135605200Y-98200799D03*
X136105201Y-98200799D03*
X136605201Y-98200799D03*
X137105199Y-98200799D03*
X137605201Y-98200799D03*
X138105200Y-98200799D03*
X138605202Y-98200799D03*
X139105201Y-98200799D03*
D28*
X139755202Y-97550798D03*
X139755202Y-97050799D03*
X139755202Y-96550798D03*
X139755202Y-96050799D03*
X139755202Y-95550797D03*
X139755202Y-95050798D03*
X139755202Y-94550799D03*
X139755202Y-94050797D03*
X139755202Y-93550798D03*
X139755202Y-93050799D03*
D29*
X139105201Y-92400798D03*
X138605202Y-92400798D03*
X138105200Y-92400798D03*
X137605201Y-92400798D03*
X137105199Y-92400798D03*
X136605201Y-92400798D03*
X136105201Y-92400798D03*
X135605200Y-92400798D03*
X135105201Y-92400798D03*
X134605202Y-92400798D03*
D30*
X136855201Y-95300797D03*
D10*
X115368800Y-96420400D03*
X115368800Y-95400400D03*
D23*
X140540800Y-99466400D03*
X141500800Y-99466400D03*
D31*
X120806800Y-96390400D03*
X120806800Y-95430400D03*
D23*
X107520800Y-98704400D03*
X108480800Y-98704400D03*
D26*
X136166800Y-101498400D03*
X135206800Y-101498400D03*
D15*
X144320800Y-96418400D03*
X145340800Y-96418400D03*
D23*
X139524800Y-108864400D03*
X140484800Y-108864400D03*
D18*
X171501318Y-103996783D03*
X171501318Y-105016783D03*
D32*
X197917318Y-77430383D03*
D26*
X136116000Y-75082400D03*
X135156000Y-75082400D03*
D14*
X162865318Y-104227283D03*
X162865318Y-105802283D03*
D31*
X118054800Y-96390400D03*
X118054800Y-95430400D03*
D23*
X140540800Y-100736400D03*
X141500800Y-100736400D03*
D26*
X142163800Y-102260400D03*
X141203800Y-102260400D03*
D23*
X172720000Y-78740000D03*
X173680000Y-78740000D03*
X133175201Y-90576400D03*
X134135201Y-90576400D03*
D15*
X144320800Y-95148400D03*
X145340800Y-95148400D03*
D33*
X186893550Y-65393400D03*
D34*
X186893550Y-63943400D03*
D18*
X189281318Y-103996783D03*
X189281318Y-105016783D03*
D14*
X173533318Y-104227283D03*
X173533318Y-105802283D03*
D26*
X150340000Y-80264000D03*
X149380000Y-80264000D03*
D32*
X159004518Y-71486783D03*
D23*
X130380800Y-97434400D03*
X131340800Y-97434400D03*
D32*
X142748000Y-75184000D03*
X146304000Y-72136000D03*
D27*
X140720000Y-82956400D03*
X139700000Y-82956400D03*
D26*
X136116000Y-73660000D03*
X135156000Y-73660000D03*
D23*
X143715800Y-102260400D03*
X144675800Y-102260400D03*
D32*
X190043318Y-60615583D03*
D35*
X133146800Y-101018400D03*
X133146800Y-101978400D03*
D13*
X108887925Y-66720900D03*
X127887925Y-90720900D03*
D36*
X114337925Y-79520900D03*
X122437925Y-79520900D03*
X118387925Y-74020900D03*
D32*
X193853318Y-60615583D03*
D26*
X150334967Y-81788000D03*
X149374967Y-81788000D03*
D35*
X156972000Y-94414400D03*
X156972000Y-95374400D03*
D37*
X195377318Y-95489783D03*
X195377318Y-94219783D03*
X195377318Y-92949783D03*
X195377318Y-91679783D03*
X187757318Y-91679783D03*
X187757318Y-92949783D03*
X187757318Y-94219783D03*
X187757318Y-95489783D03*
D26*
X150340000Y-88900000D03*
X149380000Y-88900000D03*
D38*
X113665000Y-109190000D03*
X125095000Y-109190000D03*
D39*
X127155000Y-106140000D03*
X111605000Y-106140000D03*
D40*
X125705000Y-112570000D03*
X123165000Y-114090000D03*
X115595000Y-112570000D03*
X113055000Y-114090000D03*
D41*
X114935000Y-102850000D03*
D42*
X116205000Y-100310000D03*
X117475000Y-102850000D03*
X118745000Y-100310000D03*
X120015000Y-102850000D03*
X121285000Y-100310000D03*
X122555000Y-102850000D03*
X123825000Y-100310000D03*
D26*
X150340000Y-87376000D03*
X149380000Y-87376000D03*
X154296164Y-75544000D03*
X153336164Y-75544000D03*
D22*
X104140000Y-115570000D03*
D10*
X123494800Y-96420400D03*
X123494800Y-95400400D03*
D43*
X191694800Y-65684400D03*
X192709800Y-73304400D03*
X193724800Y-65684400D03*
D44*
X193344800Y-72034400D03*
X193344800Y-70764400D03*
X193344800Y-69494400D03*
X193344800Y-68224400D03*
X193344800Y-66954400D03*
X192074800Y-66954400D03*
X192074800Y-68224400D03*
X192074800Y-69494400D03*
X192074800Y-70764400D03*
X192074800Y-72034400D03*
D27*
X108510800Y-99974400D03*
X107490800Y-99974400D03*
D14*
X184201318Y-104227283D03*
X184201318Y-105802283D03*
D23*
X170208000Y-75692000D03*
X171168000Y-75692000D03*
D14*
X180645318Y-104227283D03*
X180645318Y-105802283D03*
X177343318Y-104227283D03*
X177343318Y-105802283D03*
D32*
X146101318Y-68692783D03*
D31*
X167691318Y-95334783D03*
X167691318Y-94374783D03*
D45*
X140905000Y-71755000D03*
X140905000Y-70485000D03*
X140905000Y-69215000D03*
X140905000Y-67945000D03*
X135955000Y-67945000D03*
X135955000Y-69215000D03*
X135955000Y-70485000D03*
X135955000Y-71755000D03*
D24*
X183185318Y-81646783D03*
D25*
X180645318Y-81646783D03*
X183185318Y-84186783D03*
X180645318Y-84186783D03*
X183185318Y-86726783D03*
X180645318Y-86726783D03*
D10*
X138633200Y-90629200D03*
X138633200Y-89609200D03*
D26*
X147215800Y-102260400D03*
X146255800Y-102260400D03*
M02*
