G04 #@! TF.GenerationSoftware,KiCad,Pcbnew,(6.0.10)*
G04 #@! TF.CreationDate,2023-05-06T14:56:35+10:00*
G04 #@! TF.ProjectId,jms_ufe_controller,6a6d735f-7566-4655-9f63-6f6e74726f6c,rev?*
G04 #@! TF.SameCoordinates,Original*
G04 #@! TF.FileFunction,Soldermask,Bot*
G04 #@! TF.FilePolarity,Negative*
%FSLAX46Y46*%
G04 Gerber Fmt 4.6, Leading zero omitted, Abs format (unit mm)*
G04 Created by KiCad (PCBNEW (6.0.10)) date 2023-05-06 14:56:35*
%MOMM*%
%LPD*%
G01*
G04 APERTURE LIST*
%ADD10R,2.400000X2.400000*%
%ADD11C,2.400000*%
%ADD12C,3.200000*%
%ADD13R,1.700000X1.700000*%
%ADD14O,1.700000X1.700000*%
%ADD15C,2.200000*%
%ADD16C,3.250000*%
%ADD17C,2.600000*%
%ADD18C,1.890000*%
%ADD19R,1.900000X1.900000*%
%ADD20C,1.900000*%
%ADD21C,0.991000*%
G04 APERTURE END LIST*
D10*
X166479318Y-55168783D03*
D11*
X162979318Y-55168783D03*
X159479318Y-55168783D03*
X155979318Y-55168783D03*
X152479318Y-55168783D03*
X148979318Y-55168783D03*
X145479318Y-55168783D03*
X141979318Y-55168783D03*
X188577318Y-114728000D03*
X185077318Y-114728000D03*
X181577318Y-114728000D03*
X178077318Y-114728000D03*
X174577318Y-114728000D03*
X171077318Y-114728000D03*
X167577318Y-114728000D03*
D10*
X164077318Y-114728000D03*
X147963318Y-114728783D03*
D11*
X151463318Y-114728783D03*
X154963318Y-114728783D03*
X158463318Y-114728783D03*
D10*
X136234800Y-114714400D03*
D11*
X139734800Y-114714400D03*
D10*
X133373318Y-55168783D03*
D11*
X129873318Y-55168783D03*
X177399318Y-55168783D03*
X180899318Y-55168783D03*
D10*
X184399318Y-55168783D03*
X121633318Y-55168783D03*
D11*
X118133318Y-55168783D03*
X114633318Y-55168783D03*
X111133318Y-55168783D03*
D12*
X195580000Y-54610000D03*
D13*
X193040518Y-81646783D03*
D14*
X190500518Y-81646783D03*
X193040518Y-84186783D03*
X190500518Y-84186783D03*
X193040518Y-86726783D03*
X190500518Y-86726783D03*
D12*
X104140000Y-54610000D03*
X195580000Y-115570000D03*
D11*
X108887925Y-66720900D03*
X127887925Y-90720900D03*
D15*
X114337925Y-79520900D03*
X122437925Y-79520900D03*
X118387925Y-74020900D03*
D16*
X113665000Y-109190000D03*
X125095000Y-109190000D03*
D17*
X127155000Y-106140000D03*
X111605000Y-106140000D03*
D18*
X125705000Y-112570000D03*
X123165000Y-114090000D03*
X115595000Y-112570000D03*
X113055000Y-114090000D03*
D19*
X114935000Y-102850000D03*
D20*
X116205000Y-100310000D03*
X117475000Y-102850000D03*
X118745000Y-100310000D03*
X120015000Y-102850000D03*
X121285000Y-100310000D03*
X122555000Y-102850000D03*
X123825000Y-100310000D03*
D12*
X104140000Y-115570000D03*
D21*
X191694800Y-65684400D03*
X192709800Y-73304400D03*
X193724800Y-65684400D03*
D13*
X183185318Y-81646783D03*
D14*
X180645318Y-81646783D03*
X183185318Y-84186783D03*
X180645318Y-84186783D03*
X183185318Y-86726783D03*
X180645318Y-86726783D03*
M02*
